<?xml version="1.0" encoding="UTF-8"?>
<svg xmlns="http://www.w3.org/2000/svg" xmlns:xlink="http://www.w3.org/1999/xlink" width="330px" height="330px" viewBox="0 0 296 320" version="1.1">
<circle cx="148" cy="160" r="155" stroke="red" stroke-width="10" fill="none"/>
<g id="surface1">
<path style=" stroke:none;fill-rule:nonzero;fill:rgb(92.941176%,18.431373%,22.352941%);fill-opacity:1;" d="M 201.292969 26.109375 C 201.566406 26.316406 201.832031 26.53125 202.089844 26.75 C 202.28125 26.910156 202.46875 27.066406 202.664062 27.230469 C 206.679688 30.726562 209.765625 34.851562 210.324219 40.28125 C 210.335938 40.601562 210.34375 40.921875 210.355469 41.25 C 210.6875 41.332031 211.015625 41.414062 211.355469 41.5 C 211.296875 42.519531 211.234375 43.539062 211.171875 44.554688 C 211.148438 44.902344 211.128906 45.25 211.109375 45.597656 C 211.078125 46.09375 211.046875 46.59375 211.015625 47.089844 C 210.996094 47.390625 210.976562 47.691406 210.960938 48 C 210.855469 48.75 210.855469 48.75 210.355469 49.5 C 210.203125 50.042969 210.203125 50.042969 210.105469 50.640625 C 209.855469 52 209.855469 52 209.730469 52.515625 C 209.300781 54.378906 209.277344 56.1875 209.292969 58.09375 C 209.289062 58.40625 209.289062 58.722656 209.285156 59.046875 C 209.285156 59.347656 209.285156 59.648438 209.289062 59.960938 C 209.289062 60.230469 209.289062 60.503906 209.289062 60.785156 C 209.355469 61.507812 209.53125 61.863281 209.855469 62.5 C 209.914062 63.164062 209.914062 63.164062 209.914062 63.914062 C 209.917969 64.191406 209.921875 64.46875 209.925781 64.75 C 209.929688 65.324219 209.933594 65.902344 209.929688 66.476562 C 209.964844 68.335938 210.320312 69.65625 211.097656 71.339844 C 211.652344 72.75 211.066406 73.933594 210.542969 75.265625 C 209.699219 77.574219 209.394531 80.015625 209.027344 82.433594 C 208.980469 82.75 208.929688 83.066406 208.882812 83.394531 C 208.839844 83.679688 208.796875 83.964844 208.753906 84.257812 C 208.601562 85 208.601562 85 208.339844 85.503906 C 208.011719 86.1875 208.023438 86.769531 208.007812 87.523438 C 208 87.816406 207.988281 88.109375 207.980469 88.414062 C 207.972656 88.722656 207.96875 89.027344 207.960938 89.34375 C 207.945312 89.949219 207.929688 90.554688 207.914062 91.160156 C 207.90625 91.429688 207.902344 91.699219 207.894531 91.976562 C 207.851562 92.75 207.851562 92.75 207.722656 93.5 C 207.59375 94.289062 207.566406 95.03125 207.566406 95.828125 C 207.566406 96.125 207.566406 96.417969 207.566406 96.71875 C 207.566406 97.023438 207.570312 97.328125 207.570312 97.640625 C 207.570312 97.945312 207.566406 98.25 207.566406 98.5625 C 207.566406 98.859375 207.566406 99.152344 207.566406 99.453125 C 207.566406 99.722656 207.566406 99.988281 207.566406 100.261719 C 207.597656 100.953125 207.707031 101.574219 207.851562 102.25 C 208.046875 104.601562 208.078125 106.863281 207.105469 109.042969 C 206.714844 110.128906 206.625 111.234375 206.519531 112.378906 C 206.429688 113.289062 206.277344 113.949219 205.847656 114.75 C 205.871094 115.183594 205.871094 115.183594 205.894531 115.625 C 205.871094 116.058594 205.871094 116.058594 205.847656 116.5 C 205.4375 116.84375 205.019531 117.175781 204.59375 117.5 C 204.308594 118.167969 204.074219 118.8125 203.84375 119.5 C 203.054688 121.683594 202.035156 123.433594 200.589844 125.25 C 200.410156 125.484375 200.410156 125.484375 200.226562 125.71875 C 199.742188 126.328125 199.265625 126.804688 198.648438 127.28125 C 198 127.820312 197.964844 127.945312 197.835938 128.75 C 197.796875 129.347656 197.765625 129.949219 197.742188 130.546875 C 197.613281 132.738281 197.074219 134.296875 196.066406 136.234375 C 195.460938 137.402344 195.132812 138.429688 194.941406 139.722656 C 194.828125 140.25 194.828125 140.25 194.359375 140.90625 C 194.265625 141.101562 194.171875 141.296875 194.078125 141.5 C 194.445312 142.339844 194.445312 142.339844 194.78125 142.90625 C 195.242188 143.824219 195.417969 144.792969 195.628906 145.792969 C 195.84375 146.542969 196.179688 147.082031 196.582031 147.75 C 196.710938 148.3125 196.710938 148.3125 196.753906 148.859375 C 196.769531 149.054688 196.789062 149.246094 196.804688 149.449219 C 196.832031 150 196.832031 150 196.800781 150.8125 C 196.769531 151.511719 196.769531 151.511719 197.203125 152.011719 C 197.753906 153.074219 197.707031 154.066406 197.726562 155.25 C 197.75 156.625 197.777344 157.726562 198.335938 159 C 198.417969 159.789062 198.417969 159.789062 198.429688 160.625 C 198.4375 160.902344 198.441406 161.175781 198.449219 161.460938 C 198.308594 162.429688 198.03125 162.824219 197.332031 163.5 C 196.777344 163.734375 196.777344 163.734375 196.207031 163.859375 C 195.304688 164.121094 195.109375 164.214844 194.46875 164.96875 C 194.132812 165.636719 193.847656 166.304688 193.578125 167 C 193.410156 167.164062 193.246094 167.328125 193.074219 167.5 C 193.074219 167.746094 193.074219 167.996094 193.074219 168.25 C 193.980469 168.851562 194.25 168.765625 195.296875 168.640625 C 196.710938 168.472656 196.710938 168.472656 197.492188 168.648438 C 198.226562 168.773438 198.441406 168.589844 199.085938 168.25 C 199.839844 168.167969 200.589844 168.140625 201.347656 168.109375 C 202.609375 167.921875 203.433594 167.199219 204.390625 166.40625 C 205.554688 165.492188 206.746094 164.835938 208.101562 164.25 C 208.285156 164.167969 208.46875 164.089844 208.65625 164.007812 C 210.484375 163.296875 212.570312 163.132812 214.425781 163.84375 C 214.578125 163.914062 214.734375 163.980469 214.894531 164.054688 C 215.398438 164.265625 215.882812 164.382812 216.414062 164.5 C 217.3125 164.734375 217.855469 164.992188 218.621094 165.5 C 219.960938 166.378906 220.902344 166.625 222.484375 166.703125 C 224.375 166.855469 225.375 167.285156 226.632812 168.75 C 228.292969 170.175781 229.503906 170.324219 231.640625 170.25 C 231.636719 169.949219 231.636719 169.648438 231.632812 169.335938 C 231.628906 168.945312 231.628906 168.550781 231.625 168.15625 C 231.625 167.957031 231.621094 167.757812 231.621094 167.554688 C 231.613281 166.058594 231.613281 166.058594 231.890625 165.5 C 231.941406 164.667969 231.976562 163.839844 232 163.007812 C 232.050781 161.890625 232.1875 161.128906 232.894531 160.25 C 233.140625 160.167969 233.390625 160.085938 233.644531 160 C 233.894531 160.164062 234.140625 160.328125 234.394531 160.5 C 234.542969 160.257812 234.6875 160.015625 234.835938 159.765625 C 235.707031 158.320312 236.578125 156.871094 237.449219 155.421875 C 237.5625 155.226562 237.679688 155.035156 237.796875 154.835938 C 238.050781 154.417969 238.3125 154.007812 238.578125 153.601562 C 239.375 152.367188 239.898438 151.523438 239.65625 150 C 239.566406 149.824219 239.480469 149.648438 239.390625 149.46875 C 239.152344 149 239.152344 149 239.121094 148.40625 C 239.5625 147.382812 240.414062 146.738281 241.40625 146.25 C 241.972656 146.335938 241.972656 146.335938 242.410156 146.5 C 242.488281 147.03125 242.488281 147.03125 242.410156 147.75 C 242.007812 148.261719 241.589844 148.765625 241.15625 149.25 C 241.074219 149.496094 240.992188 149.746094 240.90625 150 C 241.085938 149.8125 241.269531 149.628906 241.453125 149.4375 C 243.265625 147.667969 243.265625 147.667969 244.414062 147.5 C 244.332031 147.253906 244.246094 147.003906 244.164062 146.75 C 243.996094 146.707031 243.832031 146.667969 243.660156 146.625 C 243.496094 146.582031 243.332031 146.542969 243.160156 146.5 C 243.078125 146.253906 242.996094 146.003906 242.910156 145.75 C 243.378906 144.851562 243.902344 144.011719 244.445312 143.15625 C 244.925781 142.320312 245.125 141.5 245.292969 140.554688 C 245.414062 140 245.414062 140 245.664062 139.410156 C 246.058594 138.375 246.109375 137.308594 246.226562 136.214844 C 246.386719 135.402344 246.585938 134.816406 246.910156 134.070312 C 247.59375 132.441406 247.703125 130.796875 247.863281 129.054688 C 248.019531 127.585938 248.25 126.703125 249.171875 125.5 C 249.414062 124.835938 249.414062 124.835938 249.5625 124.1875 C 249.839844 123.054688 249.839844 123.054688 250.671875 122.5 C 251.875 122.328125 252.832031 122.804688 253.929688 123.25 C 253.921875 122.839844 253.921875 122.839844 253.914062 122.421875 C 253.929688 121.5 253.929688 121.5 254.179688 120.75 C 254.097656 120.667969 254.015625 120.585938 253.929688 120.5 C 253.785156 119.136719 254.082031 118.234375 254.664062 117.003906 C 255.402344 114.917969 255.511719 112.785156 255.492188 110.59375 C 255.496094 110.351562 255.496094 110.109375 255.5 109.855469 C 255.496094 108.328125 255.316406 106.980469 254.929688 105.5 C 254.847656 105.5 254.765625 105.5 254.679688 105.5 C 254.632812 104.910156 254.585938 104.324219 254.539062 103.734375 C 254.511719 103.40625 254.488281 103.078125 254.460938 102.742188 C 254.386719 100.398438 254.9375 98.007812 256.496094 96.203125 C 256.804688 95.882812 257.117188 95.5625 257.433594 95.25 C 257.589844 95.085938 257.746094 94.921875 257.90625 94.753906 C 260.027344 92.546875 262.398438 90.277344 265.621094 90.140625 C 266.679688 90.1875 267.492188 90.554688 268.453125 91 C 268.742188 91.042969 269.03125 91.082031 269.328125 91.125 C 270.3125 91.265625 271.050781 91.609375 271.960938 92 C 272.53125 92.148438 273.105469 92.273438 273.683594 92.390625 C 274.628906 92.585938 275.417969 92.820312 276.277344 93.265625 C 276.457031 93.355469 276.632812 93.445312 276.816406 93.539062 C 276.949219 93.609375 277.082031 93.679688 277.21875 93.75 C 277.21875 93.914062 277.21875 94.078125 277.21875 94.25 C 277.371094 94.273438 277.527344 94.292969 277.6875 94.316406 C 278.21875 94.5 278.21875 94.5 278.503906 94.910156 C 278.585938 95.089844 278.667969 95.269531 278.753906 95.453125 C 279.449219 96.8125 280.394531 97.890625 281.398438 99.027344 C 283.257812 101.359375 283.050781 103.824219 282.773438 106.65625 C 282.753906 106.902344 282.734375 107.148438 282.710938 107.402344 C 282.5 109.734375 282 111.585938 280.90625 113.675781 C 280.566406 114.335938 280.230469 114.984375 279.9375 115.667969 C 279.246094 117.25 278.246094 118.351562 277.0625 119.578125 C 276.238281 120.4375 275.570312 121.273438 274.980469 122.3125 C 274.589844 122.957031 274.097656 123.492188 273.59375 124.054688 C 273.195312 124.519531 272.847656 125 272.492188 125.5 C 271.550781 126.769531 270.417969 127.851562 269.03125 128.625 C 268.300781 129.097656 267.941406 129.667969 267.480469 130.394531 C 267.386719 130.511719 267.296875 130.628906 267.203125 130.75 C 267.035156 130.75 266.871094 130.75 266.699219 130.75 C 266.675781 130.945312 266.652344 131.136719 266.625 131.335938 C 266.386719 132.992188 266.054688 134.3125 265.199219 135.75 C 264.964844 136.167969 264.964844 136.167969 264.726562 136.59375 C 264.441406 137.09375 264.144531 137.585938 263.84375 138.078125 C 262.285156 140.574219 262.285156 140.574219 261.222656 143.296875 C 260.875 144.167969 260.378906 144.589844 259.703125 145.222656 C 259.089844 145.847656 258.601562 146.523438 258.09375 147.234375 C 256.714844 149.101562 255.210938 150.824219 252.925781 151.5 C 251.535156 151.648438 250.679688 151.320312 249.421875 150.75 C 248.613281 150.550781 248.613281 150.550781 247.917969 150.5 C 247.582031 150.78125 247.582031 150.78125 247.605469 151.527344 C 247.675781 152.589844 247.980469 153.378906 248.417969 154.328125 C 249.195312 156.148438 249.609375 157.566406 248.902344 159.46875 C 248.597656 160.160156 248.261719 160.828125 247.917969 161.5 C 247.835938 161.71875 247.75 161.9375 247.664062 162.160156 C 247.382812 162.839844 246.96875 163.320312 246.488281 163.867188 C 246.121094 164.289062 246.121094 164.289062 245.695312 164.96875 C 243.941406 167.542969 241.476562 169.730469 238.699219 171.171875 C 236.25 172.453125 234.914062 174.207031 233.894531 176.75 C 233.3125 178.734375 233.773438 180.429688 234.644531 182.25 C 234.949219 182.683594 235.261719 183.109375 235.585938 183.53125 C 236.339844 184.546875 236.632812 185.253906 236.527344 186.519531 C 236.335938 187.242188 236.007812 187.589844 235.398438 188 C 235.230469 188 235.066406 188 234.898438 188 C 235.027344 188.273438 235.027344 188.273438 235.160156 188.554688 C 236.089844 190.683594 236.3125 192.507812 236.363281 194.808594 C 236.355469 195.730469 236.355469 195.730469 236.648438 196.5 C 236.492188 196.519531 236.335938 196.539062 236.171875 196.5625 C 235.613281 196.695312 235.613281 196.695312 235.414062 197.1875 C 235.359375 197.382812 235.308594 197.578125 235.257812 197.78125 C 235.167969 198.117188 235.167969 198.117188 235.074219 198.460938 C 234.800781 199.667969 234.582031 200.882812 234.355469 202.09375 C 234.164062 202.921875 233.90625 203.582031 233.535156 204.34375 C 233.167969 205.160156 233.167969 205.160156 233.304688 206.011719 C 233.496094 206.367188 233.6875 206.722656 233.878906 207.078125 C 234.464844 208.558594 234.386719 210.199219 234.144531 211.75 C 233.710938 212.535156 233.183594 212.847656 232.390625 213.25 C 232.179688 213.371094 231.964844 213.492188 231.742188 213.617188 C 231.273438 213.875 230.804688 214.128906 230.332031 214.375 C 229.089844 215.046875 227.9375 215.847656 226.796875 216.679688 C 224.992188 217.960938 224.992188 217.960938 223.628906 217.75 C 223.769531 216.910156 223.984375 216.253906 224.378906 215.5 C 223.804688 215.765625 223.230469 216.039062 222.65625 216.3125 C 222.496094 216.386719 222.332031 216.460938 222.164062 216.539062 C 221.46875 216.875 220.949219 217.140625 220.496094 217.777344 C 220.328125 218.421875 220.566406 218.675781 220.875 219.25 C 220.738281 220.332031 220.171875 220.726562 219.367188 221.390625 C 218.894531 221.730469 218.433594 221.988281 217.914062 222.25 C 217.085938 222.675781 217.085938 222.675781 216.773438 223.40625 C 216.570312 224.503906 216.875 225.242188 217.304688 226.234375 C 217.445312 226.574219 217.585938 226.914062 217.722656 227.257812 C 217.792969 227.421875 217.859375 227.585938 217.929688 227.757812 C 218.113281 228.238281 218.257812 228.71875 218.386719 229.21875 C 218.558594 230.015625 218.558594 230.015625 219.121094 230.5 C 219.183594 231.15625 219.183594 231.15625 219.1875 231.980469 C 219.1875 232.277344 219.1875 232.574219 219.1875 232.882812 C 219.1875 233.195312 219.183594 233.507812 219.183594 233.828125 C 219.183594 234.136719 219.1875 234.445312 219.1875 234.765625 C 219.1875 235.210938 219.1875 235.210938 219.1875 235.667969 C 219.1875 235.941406 219.183594 236.214844 219.183594 236.496094 C 219.121094 237.25 219.121094 237.25 218.851562 237.894531 C 218.566406 238.636719 218.675781 238.992188 218.871094 239.75 C 219.109375 242.75 219.125 245.339844 217.617188 248 C 217.257812 249.324219 217.421875 250.039062 217.941406 251.25 C 218.214844 252.023438 218.167969 252.6875 218.117188 253.5 C 218.613281 253.335938 219.109375 253.171875 219.621094 253 C 220.34375 253.613281 220.367188 253.707031 220.457031 254.730469 C 220.460938 255.132812 220.464844 255.535156 220.464844 255.9375 C 220.515625 257.925781 220.851562 259.53125 221.585938 261.375 C 222.597656 264.429688 222.304688 268.183594 221.953125 271.34375 C 221.921875 271.632812 221.890625 271.925781 221.855469 272.226562 C 221.570312 273.1875 221.089844 273.566406 220.371094 274.25 C 220.050781 274.921875 220.050781 274.921875 219.855469 275.625 C 219.496094 276.703125 219.105469 277.378906 218.367188 278.25 C 217.484375 279.738281 216.960938 281.019531 216.867188 282.75 C 216.617188 282.832031 216.371094 282.914062 216.113281 283 C 216.09375 283.167969 216.070312 283.339844 216.050781 283.515625 C 215.78125 285.300781 215.234375 286.675781 214.363281 288.25 C 214.183594 288.597656 214.003906 288.945312 213.828125 289.296875 C 213.757812 289.441406 213.683594 289.582031 213.609375 289.730469 C 212.957031 291.09375 212.398438 292.496094 211.859375 293.90625 C 211.757812 294.164062 211.757812 294.164062 211.65625 294.429688 C 211.15625 295.78125 210.816406 297.132812 210.566406 298.558594 C 210.230469 299.65625 209.621094 300.308594 208.695312 300.96875 C 207.34375 301.417969 206.089844 301.128906 204.707031 300.890625 C 203.035156 300.644531 202.042969 300.914062 200.589844 301.75 C 200.203125 301.96875 200.203125 301.96875 199.8125 302.191406 C 197.785156 303.394531 195.988281 304.777344 194.1875 306.289062 C 193.105469 307.105469 191.914062 307.332031 190.570312 307.25 C 190.570312 307.003906 190.570312 306.753906 190.570312 306.5 C 190.40625 306.5 190.242188 306.5 190.070312 306.5 C 189.988281 306.335938 189.90625 306.171875 189.820312 306 C 189.328125 305.902344 189.328125 305.902344 188.734375 305.886719 C 188.511719 305.871094 188.285156 305.855469 188.054688 305.84375 C 187.816406 305.828125 187.578125 305.8125 187.332031 305.796875 C 185.304688 305.640625 183.796875 305.34375 182.058594 304.25 C 181.835938 304.167969 181.613281 304.085938 181.382812 304 C 180.601562 303.660156 180.613281 303.265625 180.304688 302.5 C 179.894531 302.316406 179.476562 302.152344 179.050781 302 C 178.535156 301.757812 178.019531 301.511719 177.503906 301.265625 C 176.292969 300.703125 175.113281 300.25 173.824219 299.910156 C 173.292969 299.75 173.292969 299.75 172.78125 299.492188 C 172.238281 299.199219 172.238281 299.199219 171.367188 299.0625 C 169.894531 298.714844 168.761719 297.808594 167.582031 296.898438 C 166.609375 296.160156 165.714844 295.765625 164.539062 295.425781 C 164.027344 295.25 164.027344 295.25 163.417969 294.78125 C 162.46875 294.363281 161.84375 294.746094 160.890625 295.070312 C 159.25 295.550781 157.960938 294.777344 156.546875 294.015625 C 156.039062 293.714844 156.039062 293.714844 155.511719 293.75 C 155.503906 293.921875 155.492188 294.09375 155.484375 294.269531 C 155.46875 294.496094 155.453125 294.722656 155.433594 294.953125 C 155.417969 295.175781 155.40625 295.398438 155.390625 295.628906 C 155.242188 296.351562 155.121094 296.589844 154.511719 297 C 153.191406 297.234375 151.925781 297.207031 150.785156 296.46875 C 150.046875 295.902344 150.046875 295.902344 149.285156 296.171875 C 148.773438 296.457031 148.773438 296.457031 148.5 296.75 C 147.9375 296.828125 147.9375 296.828125 147.25 296.75 C 147.066406 296.578125 146.886719 296.410156 146.699219 296.234375 C 145.75 295.578125 145.132812 295.726562 144.019531 295.859375 C 143.757812 295.929688 143.757812 295.929688 143.492188 296 C 143.410156 296.164062 143.328125 296.328125 143.242188 296.5 C 143.324219 296.664062 143.40625 296.828125 143.492188 297 C 144.140625 297.066406 144.769531 297.105469 145.417969 297.125 C 146.683594 297.164062 147.832031 297.203125 149 297.75 C 149.347656 298.28125 149.347656 298.28125 149.503906 298.75 C 147.074219 299.632812 144.9375 299.863281 142.496094 298.933594 C 141.835938 298.695312 141.179688 298.589844 140.488281 298.5 C 140.988281 297.75 140.988281 297.75 141.503906 297.546875 C 142.082031 297.273438 142.082031 297.273438 142.175781 296.46875 C 142.199219 296.230469 142.21875 295.996094 142.242188 295.75 C 142.011719 295.875 141.785156 295.996094 141.550781 296.125 C 139.949219 296.808594 138.175781 296.691406 136.527344 296.234375 C 135.671875 295.714844 135.0625 295.144531 134.394531 294.40625 C 133.941406 293.964844 133.5625 293.726562 132.976562 293.5 C 131.660156 293.546875 130.878906 293.789062 129.96875 294.75 C 129.507812 295.695312 129.476562 296.34375 129.59375 297.359375 C 129.613281 298.164062 129.539062 298.417969 129 299.03125 C 127.703125 300.03125 126.625 300.441406 124.992188 300.410156 C 124.460938 300.25 124.460938 300.25 124.011719 299.8125 C 123.46875 298.804688 123.726562 297.835938 123.960938 296.75 C 124.1875 296.085938 124.441406 295.449219 124.726562 294.804688 C 125.113281 293.894531 125.28125 293.460938 124.960938 292.5 C 124.5625 292.214844 124.5625 292.214844 124.070312 292 C 123.886719 291.914062 123.707031 291.832031 123.523438 291.742188 C 122.832031 291.445312 122.132812 291.183594 121.421875 290.929688 C 120.953125 290.75 120.953125 290.75 120.1875 290.328125 C 119.296875 289.929688 118.664062 289.910156 117.699219 290 C 116.824219 290.582031 116.800781 290.792969 116.445312 291.75 C 116.125 292.421875 115.785156 293.085938 115.445312 293.75 C 114.296875 293.632812 113.835938 293.242188 113.066406 292.40625 C 112.15625 291.425781 111.324219 290.71875 110.046875 290.28125 C 109.433594 290 109.433594 290 109.070312 289.449219 C 108.109375 288.394531 106.90625 287.890625 105.632812 287.265625 C 101.269531 285.097656 101.269531 285.097656 99.917969 283.75 C 99.917969 283.503906 99.917969 283.253906 99.917969 283 C 100.414062 282.753906 100.910156 282.503906 101.421875 282.25 C 101.375 281.390625 101.375 281.390625 101.171875 280.5 C 100.445312 279.996094 99.847656 279.941406 98.980469 279.96875 C 98.679688 279.976562 98.679688 279.976562 98.375 279.984375 C 98.222656 279.988281 98.070312 279.992188 97.914062 280 C 97.667969 280.578125 97.417969 281.15625 97.164062 281.75 C 95.667969 281.71875 95.023438 281.269531 93.953125 280.257812 C 93.375 279.71875 92.765625 279.246094 92.140625 278.765625 C 91.175781 278.003906 90.378906 277.207031 89.59375 276.265625 C 89.097656 275.6875 88.566406 275.160156 88.023438 274.625 C 87.332031 273.941406 86.667969 273.253906 86.035156 272.515625 C 84.683594 270.949219 83.265625 269.410156 81.574219 268.203125 C 80.398438 267.359375 79.335938 266.429688 78.914062 265.015625 C 78.902344 264.84375 78.894531 264.675781 78.882812 264.5 C 78.71875 264.5 78.550781 264.5 78.382812 264.5 C 78.300781 264.085938 78.21875 263.675781 78.132812 263.25 C 78.050781 263.25 77.964844 263.25 77.882812 263.25 C 77.601562 261.890625 77.585938 260.570312 77.585938 259.1875 C 77.582031 258.964844 77.578125 258.742188 77.574219 258.511719 C 77.570312 256.847656 77.621094 255.019531 78.382812 253.5 C 78.558594 251.875 78.558594 251.875 77.992188 250.40625 C 77.386719 250.003906 76.761719 249.660156 76.125 249.3125 C 75.105469 248.671875 74.257812 247.8125 73.375 247 C 73.035156 246.707031 72.695312 246.414062 72.355469 246.125 C 72.027344 245.835938 71.699219 245.542969 71.371094 245.25 C 71.191406 245.09375 71.011719 244.9375 70.828125 244.773438 C 69.714844 243.75 69.117188 242.917969 68.734375 241.445312 C 68.65625 240.996094 68.65625 240.996094 68.367188 240.75 C 68.285156 240.292969 68.210938 239.835938 68.144531 239.375 C 67.957031 238.1875 67.6875 237.105469 67.28125 235.976562 C 67.082031 235.410156 66.957031 234.84375 66.863281 234.25 C 66.699219 234.25 66.53125 234.25 66.363281 234.25 C 66.335938 233.488281 66.316406 232.730469 66.300781 231.96875 C 66.292969 231.753906 66.28125 231.539062 66.273438 231.320312 C 66.253906 229.921875 66.390625 229.089844 67.363281 228 C 68.433594 227.355469 69.476562 227.371094 70.699219 227.3125 C 70.90625 227.296875 71.113281 227.285156 71.328125 227.269531 C 72.625 227.203125 73.621094 227.355469 74.875 227.75 C 75.5 227.785156 75.5 227.785156 76.066406 227.703125 C 76.25 227.683594 76.433594 227.664062 76.625 227.644531 C 77.589844 227.367188 78.066406 226.53125 78.632812 225.75 C 79.210938 225.78125 79.210938 225.78125 79.886719 226 C 80.054688 226.363281 80.054688 226.363281 80.230469 226.734375 C 80.570312 227.574219 80.570312 227.574219 81.449219 227.84375 C 83.058594 228.183594 83.058594 228.183594 84.582031 227.742188 C 85.613281 226.910156 86.375 225.90625 87.164062 224.847656 C 87.679688 224.214844 88.238281 223.691406 88.835938 223.140625 C 90.148438 221.875 91.027344 220.433594 91.921875 218.855469 C 92.449219 217.9375 92.953125 217.152344 93.71875 216.417969 C 94.460938 215.792969 94.460938 215.792969 94.753906 214.890625 C 95.304688 213.683594 96.144531 213.066406 97.164062 212.25 C 98.027344 211.507812 98.40625 210.78125 98.882812 209.769531 C 99.261719 209.078125 99.753906 208.546875 100.304688 207.984375 C 101.203125 206.796875 101.546875 205.378906 101.890625 203.953125 C 102.695312 200.839844 103.800781 198.664062 105.929688 196.25 C 106.316406 195.777344 106.703125 195.304688 107.085938 194.828125 C 107.757812 194.003906 108.449219 193.207031 109.167969 192.421875 C 110.085938 191.378906 110.398438 190.53125 110.5 189.140625 C 110.46875 188.242188 110.46875 188.242188 110.1875 187.375 C 109.8125 186.066406 109.722656 185.171875 110.34375 183.9375 C 111.433594 182.675781 112.570312 182.410156 114.191406 182.25 C 114.207031 181.542969 114.203125 181.140625 113.941406 180.5 C 113.261719 179.882812 112.488281 179.449219 111.6875 179 C 110.453125 178.265625 109.410156 177.578125 108.433594 176.5 C 108.304688 176.363281 108.175781 176.226562 108.039062 176.085938 C 105.773438 173.601562 106.132812 170.214844 106.132812 167.03125 C 106.128906 166.738281 106.125 166.441406 106.125 166.140625 C 106.117188 163.441406 106.328125 160.976562 107.429688 158.5 C 107.523438 158.046875 107.605469 157.59375 107.683594 157.140625 C 107.9375 155.589844 108.433594 154.273438 109.105469 152.859375 C 109.5 151.859375 109.425781 150.984375 109.371094 149.921875 C 109.332031 147.917969 109.882812 146.746094 111.1875 145.25 C 111.617188 144.828125 112.042969 144.441406 112.519531 144.078125 C 112.972656 143.75 112.972656 143.75 113.378906 143.226562 C 114.160156 142.566406 114.792969 142.570312 115.804688 142.484375 C 117.09375 142.371094 117.867188 142.191406 118.949219 141.5 C 119.566406 141.359375 119.566406 141.359375 120.1875 141.28125 C 121.464844 141.058594 122.019531 140.621094 122.957031 139.75 C 123.472656 139.484375 123.472656 139.484375 123.960938 139.5 C 124.574219 139.917969 125.074219 140.339844 125.554688 140.90625 C 126.191406 141.441406 126.921875 141.554688 127.714844 141.75 C 127.691406 141.480469 127.664062 141.214844 127.636719 140.9375 C 127.714844 140 127.714844 140 128.292969 139.484375 C 128.515625 139.324219 128.738281 139.164062 128.96875 139 C 129.09375 138.753906 129.214844 138.503906 129.34375 138.25 C 129.777344 137.382812 130.152344 137.011719 130.972656 136.5 C 132.425781 136.144531 133.921875 136.210938 135.40625 136.207031 C 135.691406 136.207031 135.972656 136.207031 136.265625 136.207031 C 136.859375 136.203125 137.457031 136.203125 138.054688 136.203125 C 138.964844 136.203125 139.875 136.199219 140.785156 136.195312 C 141.367188 136.191406 141.949219 136.191406 142.527344 136.191406 C 142.800781 136.191406 143.070312 136.1875 143.351562 136.1875 C 144.761719 136.191406 145.910156 136.304688 147.25 136.75 C 147.789062 136.824219 147.789062 136.824219 148.269531 136.816406 C 148.441406 136.816406 148.613281 136.816406 148.789062 136.820312 C 148.964844 136.816406 149.136719 136.816406 149.316406 136.8125 C 149.492188 136.8125 149.667969 136.816406 149.851562 136.820312 C 150.789062 136.816406 151.207031 136.78125 152.007812 136.25 C 152.507812 136.105469 153.015625 135.976562 153.523438 135.859375 C 154.546875 135.632812 154.546875 135.632812 155.511719 135.25 C 156.113281 135.210938 156.710938 135.179688 157.3125 135.15625 C 158.722656 135.082031 159.761719 134.878906 161.023438 134.25 C 161.402344 134.15625 161.78125 134.074219 162.164062 134 C 163.375 133.753906 164.390625 133.386719 165.277344 132.5 C 166.414062 132.5625 167.125 133.109375 168.035156 133.75 C 168.34375 133.9375 168.34375 133.9375 168.660156 134.125 C 169.902344 134.871094 170.941406 135.625 172.007812 136.609375 C 172.90625 137.433594 173.785156 138.082031 174.835938 138.695312 C 175.328125 139.019531 175.679688 139.375 176.078125 139.8125 C 178.027344 141.851562 180.863281 143.433594 183.5625 144.21875 C 185.152344 144.6875 186.007812 145.046875 186.992188 146.390625 C 187.328125 146.832031 187.328125 146.832031 188.113281 146.921875 C 188.832031 146.808594 188.832031 146.808594 189.273438 146.328125 C 189.863281 145.179688 189.929688 144.027344 189.820312 142.75 C 189.457031 141.761719 189 140.949219 188.289062 140.171875 C 187.328125 138.804688 187.679688 136.859375 187.933594 135.273438 C 188.042969 134.761719 188.179688 134.253906 188.316406 133.75 C 188.726562 133.667969 189.132812 133.582031 189.539062 133.5 C 189.765625 133.453125 189.992188 133.40625 190.226562 133.359375 C 190.824219 133.25 190.824219 133.25 191.324219 133.25 C 191.28125 133.074219 191.238281 132.898438 191.195312 132.71875 C 190.851562 131.125 190.796875 130.046875 191.324219 128.5 C 191.074219 128.664062 190.828125 128.828125 190.570312 129 C 189.960938 129.109375 189.960938 129.109375 189.320312 129 C 188.480469 128.183594 188.128906 127.367188 187.816406 126.25 C 187.628906 126.289062 187.441406 126.332031 187.246094 126.375 C 186.332031 126.484375 185.707031 126.496094 184.8125 126.25 C 183.710938 125.320312 182.957031 124.015625 182.308594 122.75 C 182.308594 122.421875 182.308594 122.089844 182.308594 121.75 C 182.144531 121.75 181.976562 121.75 181.808594 121.75 C 181.703125 121.507812 181.601562 121.261719 181.496094 121.011719 C 181.359375 120.6875 181.222656 120.367188 181.085938 120.046875 C 181.019531 119.886719 180.953125 119.726562 180.882812 119.558594 C 180.566406 118.820312 180.25 118.171875 179.804688 117.5 C 179.671875 116.882812 179.582031 116.265625 179.492188 115.640625 C 179.339844 114.960938 179.339844 114.960938 178.800781 114.425781 C 178.21875 113.636719 178.167969 113.257812 178.160156 112.292969 C 178.15625 111.871094 178.15625 111.871094 178.148438 111.441406 C 178.152344 111.148438 178.15625 110.851562 178.160156 110.546875 C 178.164062 110.242188 178.164062 109.9375 178.167969 109.625 C 178.222656 107.175781 178.648438 105.265625 179.554688 103 C 179.660156 102.671875 179.761719 102.34375 179.863281 102.015625 C 180.289062 100.613281 180.71875 99.296875 181.523438 98.0625 C 183.261719 95.359375 184.550781 91.988281 184.0625 88.75 C 183.976562 88.667969 183.894531 88.585938 183.808594 88.5 C 183.785156 87.941406 183.777344 87.382812 183.777344 86.824219 C 183.777344 86.65625 183.777344 86.488281 183.777344 86.3125 C 183.777344 85.953125 183.777344 85.597656 183.777344 85.238281 C 183.777344 84.691406 183.777344 84.148438 183.777344 83.601562 C 183.777344 83.253906 183.777344 82.90625 183.777344 82.558594 C 183.777344 82.242188 183.777344 81.925781 183.777344 81.597656 C 183.804688 80.863281 183.910156 80.21875 184.0625 79.5 C 183.96875 78.457031 183.8125 77.664062 183.308594 76.75 C 182.59375 74.328125 182.804688 71.289062 183.808594 69 C 183.921875 68.640625 184.03125 68.28125 184.140625 67.921875 C 184.691406 66.269531 185.414062 64.496094 186.566406 63.175781 C 187.859375 61.429688 187.929688 59.527344 187.894531 57.421875 C 187.894531 57.179688 187.898438 56.933594 187.898438 56.683594 C 187.890625 55.535156 187.855469 54.773438 187.316406 53.75 C 187.222656 52.859375 187.191406 51.972656 187.152344 51.078125 C 187.074219 50.3125 186.945312 49.902344 186.566406 49.25 C 186.527344 49.0625 186.492188 48.878906 186.457031 48.6875 C 186.328125 47.953125 186.328125 47.953125 185.941406 47.125 C 185.109375 44.933594 185.019531 41.683594 185.902344 39.5 C 186.328125 38.703125 186.789062 37.980469 187.316406 37.25 C 187.578125 36.859375 187.839844 36.46875 188.097656 36.078125 C 188.222656 35.902344 188.34375 35.726562 188.472656 35.546875 C 188.847656 34.957031 189.125 34.355469 189.414062 33.71875 C 189.957031 32.597656 190.597656 31.933594 191.566406 31.160156 C 192.050781 30.769531 192.472656 30.355469 192.902344 29.90625 C 198.226562 24.542969 198.226562 24.542969 201.292969 26.109375 Z M 185.8125 40.5 C 186.0625 41 186.0625 41 186.0625 41 Z M 187.566406 51.5 C 187.566406 51.996094 187.566406 52.488281 187.566406 53 C 187.648438 53 187.730469 53 187.816406 53 C 187.816406 52.503906 187.816406 52.011719 187.816406 51.5 C 187.734375 51.5 187.652344 51.5 187.566406 51.5 Z M 188.316406 57.25 C 188.316406 57.828125 188.316406 58.40625 188.316406 59 C 188.402344 59 188.484375 59 188.570312 59 C 188.570312 58.421875 188.570312 57.84375 188.570312 57.25 C 188.484375 57.25 188.402344 57.25 188.316406 57.25 Z M 183.308594 71.25 C 183.558594 72 183.558594 72 183.558594 72 Z M 184.0625 80.75 C 184.3125 81.25 184.3125 81.25 184.3125 81.25 Z M 255.429688 98.25 C 255.683594 98.75 255.683594 98.75 255.683594 98.75 Z M 180.804688 99.75 C 181.054688 100.25 181.054688 100.25 181.054688 100.25 Z M 267.203125 103.5 C 267.449219 103.871094 267.449219 103.871094 267.703125 104.25 C 267.703125 104.003906 267.703125 103.753906 267.703125 103.5 C 267.535156 103.5 267.371094 103.5 267.203125 103.5 Z M 266.699219 103.75 C 266.535156 104.078125 266.371094 104.410156 266.199219 104.75 C 266.53125 104.667969 266.859375 104.585938 267.203125 104.5 C 267.117188 104.253906 267.035156 104.003906 266.949219 103.75 C 266.867188 103.75 266.785156 103.75 266.699219 103.75 Z M 179.050781 105.25 C 179.304688 106 179.304688 106 179.304688 106 Z M 191.074219 105.75 C 191.15625 105.914062 191.238281 106.078125 191.324219 106.25 C 191.40625 106.085938 191.488281 105.921875 191.574219 105.75 C 191.410156 105.75 191.242188 105.75 191.074219 105.75 Z M 178.800781 108.75 C 178.800781 109.90625 178.800781 111.058594 178.800781 112.25 C 178.882812 112.25 178.96875 112.25 179.050781 112.25 C 179.050781 111.09375 179.050781 109.941406 179.050781 108.75 C 178.96875 108.75 178.886719 108.75 178.800781 108.75 Z M 254.179688 118.75 C 254.429688 119.25 254.429688 119.25 254.429688 119.25 Z M 191.574219 128.5 C 191.824219 129.5 191.824219 129.5 191.824219 129.5 Z M 247.917969 130.25 C 247.917969 130.664062 247.917969 131.074219 247.917969 131.5 C 248 131.5 248.085938 131.5 248.167969 131.5 C 248.167969 131.085938 248.167969 130.675781 248.167969 130.25 C 248.085938 130.25 248.003906 130.25 247.917969 130.25 Z M 191.574219 132.25 C 191.824219 133 191.824219 133 191.824219 133 Z M 246.667969 135.25 C 246.917969 135.75 246.917969 135.75 246.917969 135.75 Z M 188.066406 136 C 188.066406 136.660156 188.066406 137.320312 188.066406 138 C 188.148438 138 188.234375 138 188.316406 138 C 188.316406 137.339844 188.316406 136.679688 188.316406 136 C 188.234375 136 188.152344 136 188.066406 136 Z M 133.976562 136.5 C 133.976562 136.582031 133.976562 136.664062 133.976562 136.75 C 134.390625 136.75 134.800781 136.75 135.226562 136.75 C 135.226562 136.667969 135.226562 136.585938 135.226562 136.5 C 134.816406 136.5 134.402344 136.5 133.976562 136.5 Z M 246.417969 137.25 C 246.667969 137.75 246.667969 137.75 246.667969 137.75 Z M 245.414062 140.75 C 245.664062 141.25 245.664062 141.25 245.664062 141.25 Z M 115.445312 142.75 C 115.445312 142.832031 115.445312 142.914062 115.445312 143 C 116.105469 143 116.765625 143 117.449219 143 C 117.449219 142.917969 117.449219 142.835938 117.449219 142.75 C 116.789062 142.75 116.125 142.75 115.445312 142.75 Z M 192.824219 146.75 C 192.25 148.222656 191.988281 149.417969 192.074219 151 C 192.488281 150.835938 192.902344 150.671875 193.328125 150.5 C 193.328125 149.261719 193.328125 148.023438 193.328125 146.75 C 193.160156 146.75 192.996094 146.75 192.824219 146.75 Z M 187.566406 147.25 C 188.570312 147.5 188.570312 147.5 188.570312 147.5 Z M 193.578125 147.75 C 193.578125 148.328125 193.578125 148.90625 193.578125 149.5 C 193.660156 149.5 193.742188 149.5 193.828125 149.5 C 193.828125 148.921875 193.828125 148.34375 193.828125 147.75 C 193.746094 147.75 193.664062 147.75 193.578125 147.75 Z M 108.933594 153.75 C 109.183594 154.25 109.183594 154.25 109.183594 154.25 Z M 190.824219 155 C 190.738281 155.496094 190.65625 155.988281 190.570312 156.5 C 190.738281 156.5 190.902344 156.5 191.074219 156.5 C 191.15625 156.746094 191.238281 156.996094 191.324219 157.25 C 191.40625 156.507812 191.488281 155.765625 191.574219 155 C 191.324219 155 191.078125 155 190.824219 155 Z M 191.574219 155.25 C 191.824219 156.25 191.824219 156.25 191.824219 156.25 Z M 165.859375 160.78125 C 165.207031 161.445312 165.207031 161.445312 165.246094 162.25 C 165.589844 163.15625 166.058594 163.621094 166.78125 164.25 C 166.945312 164.167969 167.113281 164.085938 167.28125 164 C 167.199219 162.761719 167.117188 161.523438 167.03125 160.25 C 166.453125 160.199219 166.453125 160.199219 165.859375 160.78125 Z M 191.824219 162.25 C 191.824219 162.578125 191.824219 162.910156 191.824219 163.25 C 192.15625 163.25 192.484375 163.25 192.824219 163.25 C 192.742188 162.921875 192.660156 162.589844 192.574219 162.25 C 192.328125 162.25 192.078125 162.25 191.824219 162.25 Z M 106.429688 163.5 C 106.679688 164.25 106.679688 164.25 106.679688 164.25 Z M 232.390625 164.25 C 232.644531 164.75 232.644531 164.75 232.644531 164.75 Z M 168.035156 165.5 C 168.285156 166 168.285156 166 168.285156 166 Z M 188.066406 167 C 187.894531 167.105469 187.71875 167.210938 187.539062 167.320312 C 185.984375 168.308594 184.644531 169.484375 183.308594 170.75 C 183.175781 170.859375 183.046875 170.96875 182.910156 171.082031 C 181.558594 172.691406 181.597656 174.753906 181.429688 176.75 C 181.109375 180.578125 181.109375 180.578125 180.304688 182 C 179.820312 182.296875 179.820312 182.296875 179.304688 182.25 C 179.144531 182.085938 178.984375 181.921875 178.816406 181.75 C 178.648438 181.585938 178.476562 181.421875 178.300781 181.25 C 177.578125 181.289062 177.023438 181.511719 176.34375 181.765625 C 174.804688 182.21875 173.53125 182.101562 172.039062 181.5 C 171.371094 181.101562 170.738281 180.664062 170.101562 180.21875 C 169.03125 179.359375 169.03125 179.359375 167.785156 179 C 167.699219 179.246094 167.617188 179.496094 167.53125 179.75 C 167.949219 180.511719 167.949219 180.511719 168.535156 181.25 C 168.734375 181.519531 168.734375 181.519531 168.941406 181.796875 C 169.710938 182.382812 170.472656 182.539062 171.402344 182.785156 C 172.355469 183.105469 173.011719 183.625 173.792969 184.25 C 173.640625 185.609375 173.640625 185.609375 173.246094 186.171875 C 172.792969 186.5 172.792969 186.5 172.023438 186.84375 C 171.242188 187.1875 171.242188 187.1875 170.945312 187.921875 C 170.894531 188.113281 170.839844 188.304688 170.789062 188.5 C 170.101562 188.59375 170.101562 188.59375 169.285156 188.5 C 168.691406 187.75 168.691406 187.75 168.285156 187 C 167.59375 187.125 167.59375 187.125 167.03125 187.5 C 165.886719 187.566406 165.066406 187.488281 164.027344 187 C 163.269531 186.746094 163.011719 186.746094 162.25 186.871094 C 162.054688 186.90625 161.859375 186.9375 161.65625 186.96875 C 161.453125 187.003906 161.246094 187.042969 161.039062 187.078125 C 160.835938 187.109375 160.632812 187.144531 160.421875 187.175781 C 159.296875 187.359375 159.296875 187.359375 158.238281 187.765625 C 157.609375 188.078125 157.253906 187.964844 156.578125 187.828125 C 155.355469 187.683594 154.746094 187.875 153.757812 188.582031 C 153.199219 189.050781 152.667969 189.539062 152.132812 190.03125 C 151.292969 190.796875 150.625 191.226562 149.546875 191.554688 C 148.601562 191.894531 147.761719 192.4375 146.902344 192.949219 C 146.171875 193.285156 145.789062 193.367188 144.996094 193.25 C 144.339844 192.921875 144.339844 192.921875 143.664062 192.46875 C 143.304688 192.230469 143.304688 192.230469 142.9375 191.988281 C 142.328125 191.5625 141.742188 191.117188 141.160156 190.65625 C 140.359375 190.050781 139.773438 189.679688 138.734375 189.75 C 137.566406 190.59375 137.0625 191.636719 136.730469 193 C 136.65625 193.652344 136.605469 194.296875 136.582031 194.949219 C 136.457031 195.617188 136.207031 195.789062 135.730469 196.25 C 135.773438 198.570312 137.390625 199.988281 138.902344 201.558594 C 140.519531 203.265625 140.859375 204.523438 141.082031 206.875 C 141.242188 207.761719 141.417969 208.085938 141.988281 208.75 C 142.183594 209.234375 142.183594 209.234375 142.335938 209.71875 C 142.613281 210.527344 142.796875 210.8125 143.414062 211.46875 C 144.113281 212.410156 144.1875 212.953125 144.136719 214.101562 C 143.925781 215.058594 143.457031 215.726562 142.867188 216.5 C 141.898438 217.789062 141.816406 218.917969 141.988281 220.5 C 142.328125 221.132812 142.328125 221.132812 142.742188 221.75 C 142.902344 222.394531 143.023438 223.042969 143.132812 223.699219 C 143.21875 224.257812 143.21875 224.257812 143.492188 224.75 C 143.570312 225.59375 143.570312 225.59375 143.492188 226.5 C 143.007812 227.03125 143.007812 227.03125 142.492188 227.5 C 142.171875 228.0625 142.171875 228.0625 142.242188 228.75 C 142.582031 229.46875 143.035156 230.101562 143.492188 230.75 C 145.800781 234.140625 145.800781 234.140625 145.726562 236.203125 C 145.757812 237.015625 146.058594 237.578125 146.496094 238.25 C 146.664062 238.332031 146.828125 238.414062 147 238.5 C 147.109375 239.199219 147.109375 239.199219 147.171875 240.078125 C 147.191406 240.367188 147.214844 240.652344 147.234375 240.949219 C 147.25 241.75 147.25 241.75 147.085938 242.289062 C 146.945312 242.769531 146.945312 242.769531 147.257812 243.226562 C 147.457031 243.492188 147.457031 243.492188 147.65625 243.765625 C 148.453125 245 148.78125 246.179688 149.109375 247.59375 C 149.628906 249.777344 150.289062 252.191406 152.257812 253.5 C 152.617188 254.117188 152.945312 254.71875 153.257812 255.359375 C 153.347656 255.539062 153.4375 255.714844 153.527344 255.898438 C 154.210938 257.308594 154.699219 258.714844 155.011719 260.25 C 155.175781 260.25 155.34375 260.25 155.511719 260.25 C 155.59375 260.414062 155.679688 260.578125 155.761719 260.75 C 155.757812 260.574219 155.75 260.398438 155.746094 260.21875 C 155.671875 256.269531 156.1875 253.160156 158.941406 250.171875 C 161.058594 248.226562 163.355469 247.296875 166.113281 246.707031 C 166.949219 246.519531 167.726562 246.273438 168.535156 246 C 168.886719 245.914062 169.242188 245.835938 169.597656 245.765625 C 169.792969 245.722656 169.984375 245.679688 170.183594 245.632812 C 170.589844 245.542969 171 245.464844 171.410156 245.398438 C 173.472656 244.964844 174.367188 243.660156 175.546875 242 C 175.679688 241.832031 175.8125 241.660156 175.949219 241.484375 C 177 240.023438 177.664062 238.292969 178.253906 236.605469 C 178.550781 236 178.550781 236 179.199219 235.308594 C 179.992188 234.394531 179.960938 233.570312 179.945312 232.40625 C 179.996094 230.359375 180.207031 229.097656 181.730469 227.578125 C 182.335938 227.117188 182.980469 226.765625 183.652344 226.40625 C 185.894531 225.183594 187.019531 223.820312 188.167969 221.539062 C 188.5 220.882812 188.851562 220.28125 189.257812 219.671875 C 189.667969 219.042969 189.933594 218.464844 190.164062 217.75 C 190.601562 216.519531 191.332031 215.59375 192.324219 214.75 C 192.914062 214.472656 192.914062 214.472656 193.515625 214.25 C 194.34375 213.941406 194.34375 213.941406 194.871094 213.265625 C 195.070312 212.726562 195.070312 212.726562 195.195312 212.199219 C 195.328125 211.75 195.328125 211.75 195.832031 211.25 C 196.078125 209.378906 195.925781 207.796875 194.828125 206.25 C 194.332031 205.621094 193.820312 205.003906 193.308594 204.390625 C 192.847656 203.78125 192.5625 203.230469 192.261719 202.53125 C 191.507812 200.902344 190.203125 199.808594 188.921875 198.59375 C 187.984375 197.679688 187.125 196.683594 186.363281 195.617188 C 185.722656 194.898438 185.15625 194.621094 184.28125 194.234375 C 182.882812 193.617188 182.882812 193.617188 182.464844 192.953125 C 182.386719 192.730469 182.386719 192.730469 182.308594 192.5 C 183.140625 192.402344 183.976562 192.324219 184.8125 192.25 C 185.027344 192.222656 185.242188 192.199219 185.464844 192.171875 C 186.402344 192.101562 187.050781 192.070312 187.847656 192.605469 C 188.183594 192.910156 188.511719 193.222656 188.832031 193.542969 C 189.867188 194.511719 190.917969 195 192.324219 195 C 192.234375 193.621094 191.675781 192.894531 190.742188 191.9375 C 190.621094 191.804688 190.5 191.671875 190.375 191.539062 C 189.75 190.875 189.191406 190.300781 188.316406 190 C 187.46875 190.085938 186.808594 190.335938 186.0625 190.75 C 185.996094 190.609375 185.929688 190.472656 185.859375 190.328125 C 185.570312 189.730469 185.570312 189.730469 185.140625 189.15625 C 184.714844 188.308594 184.816406 187.902344 185.0625 187 C 185.226562 186.582031 185.394531 186.164062 185.5625 185.75 C 185.695312 185.246094 185.816406 184.738281 185.9375 184.234375 C 186.0625 183.75 186.0625 183.75 186.363281 183.03125 C 186.429688 182.855469 186.496094 182.679688 186.566406 182.5 C 186.484375 182.335938 186.398438 182.171875 186.316406 182 C 185.984375 182 185.652344 182 185.3125 182 C 185.433594 180.394531 185.433594 180.394531 185.953125 179.8125 C 186.636719 179.464844 187.324219 179.210938 188.046875 178.953125 C 188.5625 178.753906 189.015625 178.515625 189.492188 178.234375 C 190.179688 177.832031 190.828125 177.519531 191.574219 177.25 C 191.535156 177.085938 191.496094 176.925781 191.457031 176.757812 C 190.925781 174.386719 190.925781 174.386719 191.324219 173.25 C 191.785156 172.550781 192.289062 171.894531 192.824219 171.25 C 192.371094 170.777344 191.96875 170.429688 191.417969 170.0625 C 190.824219 169.5 190.824219 169.5 190.570312 168.640625 C 190.570312 167.664062 190.742188 167.265625 191.324219 166.5 C 189.996094 165.617188 189.28125 166.246094 188.066406 167 Z M 215.113281 182.5 C 215.113281 182.664062 215.113281 182.828125 215.113281 183 C 215.277344 183 215.445312 183 215.613281 183 C 215.945312 184.320312 216.273438 185.640625 216.617188 187 C 214.644531 186.4375 214.644531 186.4375 213.859375 186 C 213.777344 186.246094 213.695312 186.496094 213.609375 186.75 C 213.851562 187.171875 214.101562 187.589844 214.363281 188 C 214.539062 188.496094 214.710938 188.996094 214.863281 189.5 C 215.441406 189.582031 216.019531 189.664062 216.617188 189.75 C 216.679688 189.617188 216.742188 189.484375 216.808594 189.347656 C 217.550781 187.824219 217.550781 187.824219 218.054688 187.25 C 218.449219 186.621094 218.609375 186.054688 218.59375 185.308594 C 218.074219 184.019531 216.511719 183.210938 215.363281 182.5 C 215.28125 182.5 215.199219 182.5 215.113281 182.5 Z M 122.207031 183.25 C 122.042969 183.414062 121.875 183.578125 121.707031 183.75 C 121.816406 185.335938 122.90625 186.394531 123.960938 187.5 C 125.417969 188.730469 127.027344 189.714844 128.675781 190.671875 C 129.320312 191.0625 129.894531 191.515625 130.46875 192 C 131.226562 192.378906 131.890625 192.292969 132.722656 192.25 C 133.570312 191.8125 133.570312 191.8125 133.679688 190.84375 C 133.65625 190.039062 133.515625 189.792969 132.949219 189.199219 C 132.304688 188.6875 131.652344 188.214844 130.972656 187.75 C 130.71875 187.546875 130.71875 187.546875 130.460938 187.339844 C 129.90625 186.957031 129.445312 186.816406 128.796875 186.65625 C 127.054688 186.164062 125.617188 185.398438 124.273438 184.1875 C 123.609375 183.59375 123.132812 183.25 122.207031 183.25 Z M 133.726562 190.25 C 133.976562 191.25 133.976562 191.25 133.976562 191.25 Z M 101.921875 204.5 C 102.171875 205 102.171875 205 102.171875 205 Z M 196.082031 209 C 196.082031 209.578125 196.082031 210.15625 196.082031 210.75 C 196.164062 210.75 196.246094 210.75 196.332031 210.75 C 196.332031 210.171875 196.332031 209.59375 196.332031 209 C 196.25 209 196.167969 209 196.082031 209 Z M 194.828125 212.75 C 195.078125 213.25 195.078125 213.25 195.078125 213.25 Z M 190.070312 217.75 C 190.320312 218.25 190.320312 218.25 190.320312 218.25 Z M 214.613281 219.25 C 214.902344 219.597656 214.902344 219.597656 215.710938 219.523438 C 216.058594 219.523438 216.40625 219.519531 216.757812 219.515625 C 217.023438 219.515625 217.023438 219.515625 217.296875 219.511719 C 217.738281 219.507812 218.179688 219.503906 218.621094 219.5 C 218.371094 219.417969 218.125 219.335938 217.867188 219.25 C 217.867188 219.085938 217.867188 218.921875 217.867188 218.75 C 217.417969 218.738281 216.972656 218.726562 216.523438 218.71875 C 216.273438 218.714844 216.023438 218.707031 215.765625 218.699219 C 215.074219 218.683594 215.074219 218.683594 214.613281 219.25 Z M 78.132812 226.75 C 78.382812 227.25 78.382812 227.25 78.382812 227.25 Z M 180.054688 230.25 C 180.304688 230.75 180.304688 230.75 180.304688 230.75 Z M 168.535156 246 C 169.535156 246.25 169.535156 246.25 169.535156 246.25 Z M 196.082031 246.75 C 196.089844 247.242188 196.089844 247.242188 196.332031 247.75 C 197.082031 248.074219 197.082031 248.074219 197.835938 248.25 C 197.386719 247.484375 197.386719 247.484375 196.832031 246.75 C 196.585938 246.75 196.335938 246.75 196.082031 246.75 Z M 98.917969 250 C 98.917969 250.164062 98.917969 250.328125 98.917969 250.5 C 99.078125 250.601562 99.238281 250.707031 99.402344 250.8125 C 100.09375 251.398438 100.089844 251.871094 100.167969 252.75 C 100.324219 252.78125 100.484375 252.8125 100.644531 252.84375 C 100.953125 252.90625 100.953125 252.90625 101.265625 252.96875 C 101.46875 253.007812 101.671875 253.050781 101.882812 253.09375 C 102.421875 253.25 102.421875 253.25 102.925781 253.75 C 103.023438 254.246094 103.109375 254.746094 103.175781 255.25 C 103.503906 255.167969 103.835938 255.085938 104.175781 255 C 104.175781 254.503906 104.175781 254.011719 104.175781 253.5 C 104.09375 253.5 104.011719 253.5 103.925781 253.5 C 103.878906 253.292969 103.835938 253.085938 103.789062 252.871094 C 103.726562 252.597656 103.660156 252.328125 103.597656 252.046875 C 103.503906 251.640625 103.503906 251.640625 103.410156 251.230469 C 103.175781 250.503906 103.03125 250.195312 102.421875 249.75 C 101.070312 249.414062 100.195312 249.558594 98.917969 250 Z M 78.882812 252 C 79.132812 252.75 79.132812 252.75 79.132812 252.75 Z M 78.132812 254.75 C 78.382812 255.25 78.382812 255.25 78.382812 255.25 Z M 77.882812 256.5 C 77.882812 257.078125 77.882812 257.65625 77.882812 258.25 C 77.964844 258.25 78.046875 258.25 78.132812 258.25 C 78.132812 257.671875 78.132812 257.09375 78.132812 256.5 C 78.050781 256.5 77.964844 256.5 77.882812 256.5 Z M 155.761719 257.75 C 155.761719 258.328125 155.761719 258.90625 155.761719 259.5 C 155.847656 259.5 155.929688 259.5 156.011719 259.5 C 156.011719 258.921875 156.011719 258.34375 156.011719 257.75 C 155.929688 257.75 155.847656 257.75 155.761719 257.75 Z M 95.660156 259.25 C 95.746094 259.414062 95.828125 259.578125 95.910156 259.75 C 95.996094 259.585938 96.078125 259.421875 96.164062 259.25 C 95.996094 259.25 95.832031 259.25 95.660156 259.25 Z M 77.882812 260.25 C 77.882812 260.746094 77.882812 261.238281 77.882812 261.75 C 77.964844 261.75 78.046875 261.75 78.132812 261.75 C 78.132812 261.253906 78.132812 260.761719 78.132812 260.25 C 78.050781 260.25 77.964844 260.25 77.882812 260.25 Z M 123.457031 284.25 C 123.457031 284.414062 123.457031 284.578125 123.457031 284.75 C 124.945312 284.996094 124.945312 284.996094 126.464844 285.25 C 126.464844 285.828125 126.464844 286.40625 126.464844 287 C 126.960938 287.164062 127.457031 287.328125 127.964844 287.5 C 127.882812 288.242188 127.800781 288.984375 127.714844 289.75 C 128.601562 289.453125 129.472656 289.121094 130.34375 288.78125 C 130.515625 288.71875 130.683594 288.652344 130.859375 288.585938 C 132.078125 288.136719 132.078125 288.136719 132.976562 287.25 C 133.125 286.441406 133.035156 285.761719 132.722656 285 C 132.050781 284.433594 131.308594 284.230469 130.46875 284 C 130.207031 283.925781 129.945312 283.851562 129.675781 283.773438 C 126.375 282.902344 126.375 282.902344 123.457031 284.25 Z M 135.730469 284.25 C 135.558594 284.847656 135.558594 284.847656 135.480469 285.5 C 135.644531 285.664062 135.808594 285.828125 135.980469 286 C 136.144531 285.503906 136.308594 285.011719 136.480469 284.5 C 136.234375 284.417969 135.984375 284.335938 135.730469 284.25 Z M 124.210938 285 C 124.210938 285.082031 124.210938 285.164062 124.210938 285.25 C 124.621094 285.25 125.035156 285.25 125.460938 285.25 C 125.460938 285.167969 125.460938 285.085938 125.460938 285 C 125.046875 285 124.636719 285 124.210938 285 Z M 137.984375 287.5 C 137.902344 287.664062 137.816406 287.828125 137.734375 288 C 137.980469 288.082031 138.226562 288.164062 138.484375 288.25 C 138.566406 288.085938 138.648438 287.921875 138.734375 287.75 C 138.488281 287.667969 138.238281 287.585938 137.984375 287.5 Z M 144.242188 297.5 C 144.242188 297.582031 144.242188 297.664062 144.242188 297.75 C 144.988281 297.75 145.730469 297.75 146.496094 297.75 C 146.496094 297.667969 146.496094 297.585938 146.496094 297.5 C 145.753906 297.5 145.011719 297.5 144.242188 297.5 Z M 123.960938 297.75 C 124.210938 298.75 124.210938 298.75 124.210938 298.75 Z M 123.960938 297.75 "/>
<path style=" stroke:none;fill-rule:nonzero;fill:rgb(92.941176%,18.431373%,22.352941%);fill-opacity:1;" d="M 154.746094 5.703125 C 154.976562 5.699219 155.207031 5.695312 155.445312 5.695312 C 155.664062 5.695312 155.886719 5.691406 156.113281 5.691406 C 156.316406 5.691406 156.519531 5.691406 156.730469 5.6875 C 157.265625 5.75 157.265625 5.75 158.015625 6.25 C 158.089844 6.460938 158.160156 6.667969 158.234375 6.882812 C 158.457031 7.550781 158.457031 7.550781 159.089844 7.734375 C 159.320312 7.773438 159.550781 7.816406 159.785156 7.859375 C 161.972656 8.371094 163.804688 9.589844 165.027344 11.5 C 165.121094 11.914062 165.207031 12.332031 165.277344 12.75 C 165.421875 12.820312 165.570312 12.894531 165.71875 12.96875 C 166.621094 13.417969 167.105469 14.113281 167.53125 15 C 167.703125 15.769531 167.8125 16.523438 167.894531 17.308594 C 168.046875 18.066406 168.304688 18.40625 168.785156 19 C 168.832031 19.6875 168.832031 19.6875 168.785156 20.25 C 169.199219 20.414062 169.613281 20.578125 170.039062 20.75 C 170.023438 20.898438 170.007812 21.046875 169.992188 21.199219 C 169.96875 21.40625 169.949219 21.613281 169.925781 21.828125 C 169.890625 22.171875 169.890625 22.171875 169.855469 22.519531 C 169.8125 22.992188 169.777344 23.460938 169.757812 23.933594 C 169.695312 25.191406 169.523438 26.125 168.941406 27.25 C 166.59375 32.089844 166.914062 39.363281 168.035156 44.5 C 168.269531 45.007812 168.519531 45.507812 168.785156 46 C 168.867188 46.246094 168.949219 46.496094 169.035156 46.75 C 168.863281 46.882812 168.695312 47.019531 168.519531 47.15625 C 168.277344 47.449219 168.277344 47.449219 168.035156 47.75 C 168.101562 48.253906 168.1875 48.753906 168.285156 49.25 C 168.351562 50.878906 168.328125 52.503906 168.160156 54.125 C 167.921875 56.5 167.84375 58.652344 168.632812 60.921875 C 168.949219 62.121094 168.796875 63.285156 168.191406 64.359375 C 168.054688 64.570312 167.921875 64.78125 167.785156 65 C 167.574219 65.628906 167.394531 66.261719 167.21875 66.898438 C 167.03125 67.5 167.03125 67.5 166.761719 68.007812 C 166.207031 69.1875 166.464844 70.773438 166.78125 72 C 166.628906 72.082031 166.472656 72.160156 166.3125 72.246094 C 165.535156 72.980469 165.449219 73.828125 165.261719 74.84375 C 165.203125 75.15625 165.203125 75.15625 165.140625 75.472656 C 164.789062 77.285156 164.527344 79.113281 164.308594 80.949219 C 164.132812 82.320312 163.785156 83.464844 163.277344 84.75 C 163.191406 85.707031 163.222656 86.34375 163.542969 87.25 C 163.886719 88.347656 163.671875 89.273438 163.339844 90.359375 C 163.257812 91.1875 163.503906 91.710938 163.820312 92.46875 C 164.027344 93.003906 164.164062 93.519531 164.292969 94.078125 C 164.476562 95.015625 164.476562 95.015625 165.027344 95.75 C 165.097656 96.421875 165.144531 97.074219 165.167969 97.75 C 165.214844 99.144531 165.214844 99.144531 165.53125 100.5 C 165.5625 100.925781 165.578125 101.351562 165.589844 101.777344 C 165.597656 102.027344 165.609375 102.277344 165.617188 102.535156 C 165.632812 103.0625 165.644531 103.585938 165.660156 104.109375 C 165.699219 105.578125 165.699219 105.578125 166.03125 106.996094 C 166.433594 108.214844 166.390625 109.460938 166.421875 110.734375 C 166.488281 113.128906 166.488281 113.128906 166.78125 115.5 C 166.628906 115.550781 166.476562 115.605469 166.320312 115.660156 C 165.566406 116.136719 165.460938 116.617188 165.167969 117.453125 C 165.0625 117.746094 164.957031 118.035156 164.847656 118.335938 C 164.640625 118.925781 164.4375 119.515625 164.230469 120.109375 C 163.574219 121.929688 162.828125 123.316406 161.523438 124.75 C 161.308594 125 161.308594 125 161.089844 125.253906 C 159.320312 127.171875 156.394531 129.445312 153.710938 129.671875 C 152.289062 129.648438 151.511719 128.796875 150.519531 127.863281 C 150.003906 127.25 149.757812 126.753906 149.503906 126 C 149.410156 125.824219 149.316406 125.648438 149.222656 125.46875 C 149 125 149 125 149 124.25 C 148.835938 124.25 148.671875 124.25 148.5 124.25 C 148.4375 124.042969 148.4375 124.042969 148.371094 123.828125 C 147.644531 121.535156 146.730469 119.867188 145.105469 118.074219 C 144.433594 117.316406 144.089844 116.765625 143.992188 115.75 C 143.828125 115.75 143.664062 115.75 143.492188 115.75 C 141.78125 113.027344 141.789062 110.480469 141.757812 107.355469 C 141.734375 106.636719 141.625 105.953125 141.488281 105.25 C 141.460938 104.859375 141.445312 104.46875 141.441406 104.078125 C 141.4375 103.796875 141.4375 103.796875 141.429688 103.511719 C 141.488281 103 141.488281 103 141.988281 102.25 C 142.15625 102.25 142.320312 102.25 142.492188 102.25 C 142.496094 102.0625 142.503906 101.875 142.511719 101.679688 C 142.582031 100.371094 142.679688 99.257812 143.242188 98.0625 C 143.738281 96.960938 143.832031 95.941406 143.867188 94.75 C 143.914062 93.300781 144.109375 92.132812 144.761719 90.828125 C 145.347656 89.386719 145.289062 87.796875 145.292969 86.265625 C 145.296875 85.980469 145.296875 85.980469 145.300781 85.691406 C 145.304688 84.230469 145.160156 82.828125 144.492188 81.5 C 144.515625 80.945312 144.554688 80.394531 144.605469 79.84375 C 144.628906 79.546875 144.65625 79.25 144.679688 78.941406 C 144.703125 78.714844 144.722656 78.484375 144.746094 78.25 C 144.496094 78.167969 144.25 78.085938 143.992188 78 C 143.613281 77.238281 143.648438 76.429688 143.601562 75.59375 C 143.589844 75.417969 143.582031 75.242188 143.570312 75.058594 C 143.542969 74.621094 143.515625 74.1875 143.492188 73.75 C 143.328125 73.75 143.160156 73.75 142.992188 73.75 C 142.695312 72.242188 142.660156 70.738281 142.613281 69.203125 C 142.597656 68.898438 142.597656 68.898438 142.585938 68.585938 C 142.578125 68.398438 142.574219 68.214844 142.566406 68.027344 C 142.480469 67.433594 142.269531 67.027344 141.988281 66.5 C 141.898438 66.019531 141.820312 65.53125 141.753906 65.046875 C 141.621094 64.152344 141.484375 63.375 141.082031 62.5625 C 140.757812 61.800781 140.707031 61.519531 140.738281 60.734375 C 140.820312 59.769531 140.820312 59.769531 140.363281 59.113281 C 139.828125 57.886719 139.925781 56.785156 139.972656 55.46875 C 139.984375 54.980469 140 54.488281 140.007812 53.996094 C 140.019531 53.675781 140.019531 53.675781 140.03125 53.34375 C 139.980469 52.695312 139.785156 52.320312 139.484375 51.75 C 139.554688 50.976562 139.699219 50.339844 139.992188 49.621094 C 140.332031 48.414062 140.328125 47.265625 140.332031 46.015625 C 140.335938 45.773438 140.34375 45.535156 140.347656 45.285156 C 140.355469 43.714844 140.167969 42.777344 139.234375 41.5 C 138.824219 41.15625 138.410156 40.820312 137.984375 40.5 C 137.902344 40.253906 137.816406 40.003906 137.734375 39.75 C 137.996094 39.503906 137.996094 39.503906 138.265625 39.25 C 138.820312 38.703125 139.25 38.128906 139.6875 37.484375 C 140.359375 36.5625 141.007812 36.132812 142.054688 35.695312 C 142.542969 35.507812 142.542969 35.507812 142.992188 35 C 142.828125 34.835938 142.660156 34.671875 142.492188 34.5 C 142.195312 34.511719 141.902344 34.519531 141.597656 34.53125 C 140.355469 34.566406 139.273438 34.179688 138.234375 33.5 C 137.816406 32.253906 137.78125 31.042969 137.984375 29.75 C 138.355469 29.140625 138.789062 28.664062 139.265625 28.132812 C 140.03125 27.101562 140.320312 25.910156 140.691406 24.695312 C 141.042969 23.570312 141.496094 22.503906 141.960938 21.421875 C 142.203125 20.835938 142.410156 20.257812 142.601562 19.65625 C 143.90625 15.585938 143.90625 15.585938 144.996094 14.5 C 145.175781 14.078125 145.359375 13.65625 145.535156 13.230469 C 146.605469 10.78125 148.1875 9.09375 150.445312 7.683594 C 151.082031 7.191406 151.363281 6.691406 151.757812 6 C 152.667969 5.546875 153.742188 5.703125 154.746094 5.703125 Z M 152.257812 6 C 152.257812 6.082031 152.257812 6.164062 152.257812 6.25 C 152.835938 6.25 153.414062 6.25 154.011719 6.25 C 154.011719 6.167969 154.011719 6.085938 154.011719 6 C 153.433594 6 152.851562 6 152.257812 6 Z M 140.738281 44 C 140.738281 45.238281 140.738281 46.476562 140.738281 47.75 C 140.820312 47.75 140.902344 47.75 140.988281 47.75 C 140.988281 46.511719 140.988281 45.273438 140.988281 44 C 140.90625 44 140.824219 44 140.738281 44 Z M 140.988281 61.25 C 141.238281 61.75 141.238281 61.75 141.238281 61.75 Z M 141.988281 64.25 C 142.242188 64.75 142.242188 64.75 142.242188 64.75 Z M 142.992188 69 C 142.992188 70.074219 142.992188 71.144531 142.992188 72.25 C 143.074219 72.25 143.15625 72.25 143.242188 72.25 C 143.242188 71.175781 143.242188 70.105469 143.242188 69 C 143.160156 69 143.078125 69 142.992188 69 Z M 145.496094 83.5 C 145.746094 84 145.746094 84 145.746094 84 Z M 145.496094 88.5 C 145.746094 89 145.746094 89 145.746094 89 Z M 144.242188 92.75 C 144.492188 93.5 144.492188 93.5 144.492188 93.5 Z M 142.742188 100.75 C 142.992188 101.5 142.992188 101.5 142.992188 101.5 Z M 142.742188 100.75 "/>
<path style=" stroke:none;fill-rule:nonzero;fill:rgb(92.941176%,18.431373%,22.352941%);fill-opacity:1;" d="M 97.089844 29.457031 C 97.707031 29.703125 98.3125 29.972656 98.917969 30.25 C 99.128906 30.332031 99.335938 30.417969 99.554688 30.5 C 100.113281 30.726562 100.632812 30.980469 101.171875 31.25 C 101.46875 31.382812 101.765625 31.519531 102.074219 31.65625 C 104.859375 32.9375 106.976562 34.410156 108.179688 37.359375 C 108.253906 37.558594 108.328125 37.761719 108.402344 37.96875 C 108.925781 39.300781 109.503906 40.578125 110.765625 41.359375 C 110.90625 41.40625 111.042969 41.453125 111.1875 41.5 C 111.1875 41.664062 111.1875 41.828125 111.1875 42 C 111.351562 42 111.519531 42 111.6875 42 C 111.675781 42.324219 111.664062 42.648438 111.652344 42.984375 C 111.652344 44.230469 111.90625 45.300781 112.269531 46.484375 C 112.324219 46.679688 112.378906 46.875 112.4375 47.078125 C 112.800781 48.324219 113.191406 49.5625 113.621094 50.789062 C 113.691406 51.25 113.691406 51.25 113.191406 52 C 113.082031 52.546875 113.082031 52.546875 113.042969 53.15625 C 113.023438 53.386719 113.003906 53.617188 112.980469 53.855469 C 112.964844 54.105469 112.945312 54.351562 112.925781 54.609375 C 112.902344 54.867188 112.882812 55.121094 112.863281 55.386719 C 112.710938 57.269531 112.609375 59.15625 112.542969 61.046875 C 112.496094 62.195312 112.351562 63.238281 112.078125 64.359375 C 111.734375 66.148438 112.589844 67.472656 113.441406 69 C 113.632812 69.378906 113.820312 69.757812 114.003906 70.140625 C 114.238281 70.601562 114.476562 71.058594 114.730469 71.507812 C 114.945312 72 114.945312 72 114.820312 72.71875 C 114.667969 73.667969 114.875 74.09375 115.195312 75 C 115.261719 75.457031 115.324219 75.917969 115.382812 76.375 C 115.566406 77.582031 115.914062 78.503906 116.464844 79.59375 C 117.398438 81.609375 117.339844 83.460938 117.230469 85.640625 C 117.207031 86.175781 117.183594 86.707031 117.167969 87.242188 C 117.152344 87.722656 117.132812 88.199219 117.109375 88.679688 C 117.214844 89.667969 117.503906 90.054688 118.199219 90.75 C 118.71875 90.960938 118.71875 90.960938 119.25 91.078125 C 119.777344 91.3125 119.777344 91.3125 120.203125 91.75 C 120.386719 92.765625 120.410156 93.734375 120.421875 94.761719 C 120.464844 96.132812 120.707031 97.253906 121.707031 98.25 C 121.789062 99.832031 121.789062 99.832031 121.457031 100.5 C 121.394531 101.777344 121.546875 102.9375 121.800781 104.1875 C 121.863281 104.511719 121.925781 104.835938 121.992188 105.167969 C 122.164062 106.027344 122.164062 106.027344 122.707031 106.75 C 122.859375 107.457031 122.960938 108.164062 123.066406 108.875 C 123.160156 109.539062 123.160156 109.539062 123.707031 110 C 124.019531 111.070312 124.007812 112.160156 124.007812 113.265625 C 124.007812 113.453125 124.007812 113.640625 124.007812 113.832031 C 123.988281 115.679688 123.796875 117.492188 123.207031 119.25 C 123.414062 119.34375 123.617188 119.441406 123.832031 119.535156 C 124.460938 120 124.460938 120 124.574219 120.648438 C 124.558594 120.898438 124.539062 121.148438 124.523438 121.40625 C 124.464844 122.726562 124.535156 123.941406 124.710938 125.25 C 124.957031 125.332031 125.207031 125.414062 125.460938 125.5 C 125.414062 125.6875 125.367188 125.871094 125.320312 126.0625 C 125.207031 126.773438 125.289062 127.070312 125.460938 127.75 C 125.6875 129.734375 125.519531 130.910156 124.289062 132.492188 C 123.808594 133.234375 123.925781 133.886719 123.960938 134.75 C 123.503906 135.53125 123.503906 135.53125 122.957031 136.25 C 122.847656 136.460938 122.738281 136.667969 122.625 136.882812 C 121.878906 137.984375 120.707031 138.21875 119.453125 138.5 C 118.675781 138.535156 117.910156 138.515625 117.132812 138.492188 C 116.121094 138.503906 115.546875 138.699219 114.695312 139.25 C 114.429688 139.894531 114.429688 139.894531 114.441406 140.5 C 112.636719 140.410156 112.636719 140.410156 111.703125 139.65625 C 111.1875 139 111.1875 139 110.9375 138.25 C 110.328125 138.046875 110.328125 138.046875 109.605469 137.921875 C 108.261719 137.589844 108.261719 137.589844 107.558594 136.796875 C 107.433594 136.535156 107.308594 136.269531 107.179688 136 C 107.03125 135.757812 106.882812 135.515625 106.726562 135.265625 C 106.347656 134.289062 106.433594 133.761719 106.679688 132.75 C 106.816406 132.480469 106.949219 132.214844 107.085938 131.9375 C 107.910156 129.695312 107.058594 127.769531 106.113281 125.714844 C 105.957031 125.382812 105.800781 125.046875 105.644531 124.714844 C 105.351562 124.082031 105.082031 123.441406 104.816406 122.796875 C 104.742188 122.609375 104.664062 122.421875 104.582031 122.230469 C 104.425781 121.75 104.425781 121.75 104.425781 121 C 104.261719 121 104.097656 121 103.925781 121 C 103.761719 119.679688 103.59375 118.359375 103.425781 117 C 103.257812 117 103.09375 117 102.925781 117 C 102.882812 116.636719 102.882812 116.636719 102.839844 116.269531 C 102.800781 115.953125 102.761719 115.636719 102.71875 115.3125 C 102.683594 115 102.644531 114.6875 102.605469 114.363281 C 102.496094 113.515625 102.496094 113.515625 102.039062 113.023438 C 101.457031 112.191406 101.527344 111.304688 101.5 110.3125 C 101.492188 110.113281 101.484375 109.917969 101.472656 109.710938 C 101.453125 109.226562 101.4375 108.738281 101.421875 108.25 C 101.257812 108.25 101.089844 108.25 100.921875 108.25 C 100.890625 107.996094 100.890625 107.996094 100.863281 107.734375 C 100.601562 105.886719 100.027344 104.109375 98.667969 102.75 C 98.582031 102.421875 98.511719 102.089844 98.445312 101.757812 C 98.179688 100.53125 97.851562 99.335938 97.476562 98.140625 C 97.410156 97.929688 97.347656 97.722656 97.28125 97.503906 C 96.921875 96.398438 96.539062 95.441406 95.878906 94.46875 C 94.941406 93.085938 94.703125 91.550781 94.375 89.9375 C 94.199219 89.175781 94 88.679688 93.660156 88 C 93.628906 87.589844 93.613281 87.175781 93.609375 86.765625 C 93.503906 85.195312 92.847656 84.125 92.066406 82.789062 C 91.585938 81.863281 91.386719 81.042969 91.238281 80.019531 C 91.167969 79.457031 91.167969 79.457031 90.871094 78.796875 C 90.652344 78.25 90.652344 78.25 90.667969 77.65625 C 90.699219 76.960938 90.699219 76.960938 90.277344 76.269531 C 89.605469 74.765625 89.871094 73.082031 89.929688 71.472656 C 89.96875 69.855469 89.820312 68.726562 89.152344 67.25 C 89.046875 66.945312 88.945312 66.640625 88.835938 66.328125 C 88.34375 65.394531 87.917969 65.128906 87.054688 64.574219 C 86.371094 64.03125 86.191406 63.304688 85.894531 62.5 C 85.355469 61.359375 84.875 60.351562 83.828125 59.609375 C 83.140625 59 83.140625 59 82.984375 58.0625 C 82.972656 57.808594 82.972656 57.808594 82.957031 57.546875 C 82.878906 56.898438 82.664062 56.417969 82.390625 55.828125 C 81.636719 54.210938 81.636719 54.210938 81.636719 53.5 C 82.46875 51.246094 83.769531 50.035156 85.894531 49 C 86.308594 48.828125 86.726562 48.65625 87.148438 48.5 C 87.230469 48.417969 87.3125 48.335938 87.398438 48.25 C 87.394531 47.503906 87.363281 46.761719 87.332031 46.019531 C 87.40625 45.144531 87.675781 44.726562 88.148438 44 C 88.210938 43.199219 88.210938 43.199219 88.148438 42.5 C 87.972656 42.4375 87.796875 42.375 87.617188 42.3125 C 86.289062 41.734375 85.132812 41.019531 84.390625 39.75 C 84.535156 37.101562 86.566406 34.136719 88.398438 32.25 C 89.617188 31.253906 90.949219 30.566406 92.394531 29.964844 C 92.914062 29.757812 92.914062 29.757812 93.402344 29.476562 C 94.558594 28.957031 95.898438 29.09375 97.089844 29.457031 Z M 83.390625 57.75 C 83.640625 58.25 83.640625 58.25 83.640625 58.25 Z M 90.902344 65.5 C 91.152344 66 91.152344 66 91.152344 66 Z M 89.402344 66.75 C 89.652344 67.25 89.652344 67.25 89.652344 67.25 Z M 90.152344 70 C 90.402344 70.75 90.402344 70.75 90.402344 70.75 Z M 90.152344 72 C 90.402344 73 90.402344 73 90.402344 73 Z M 93.910156 87 C 94.160156 88 94.160156 88 94.160156 88 Z M 94.910156 90.75 C 95.160156 91.25 95.160156 91.25 95.160156 91.25 Z M 103.925781 119 C 104.175781 120 104.175781 120 104.175781 120 Z M 103.925781 119 "/>
<path style=" stroke:none;fill-rule:nonzero;fill:rgb(92.941176%,18.431373%,22.352941%);fill-opacity:1;" d="M 25.792969 153 C 25.984375 153.15625 26.175781 153.308594 26.371094 153.46875 C 27.304688 154.207031 28.203125 154.234375 29.363281 154.375 C 30.050781 154.5 30.050781 154.5 30.800781 155 C 31.316406 155.113281 31.316406 155.113281 31.851562 155.15625 C 32.164062 155.1875 32.480469 155.21875 32.804688 155.25 C 32.929688 155.867188 32.929688 155.867188 33.054688 156.5 C 33.261719 156.550781 33.261719 156.550781 33.46875 156.601562 C 35.132812 157.078125 36.277344 157.859375 37.5625 159 C 37.757812 159.171875 37.953125 159.339844 38.152344 159.515625 C 39.152344 160.449219 39.890625 161.300781 40.492188 162.53125 C 41.355469 164.269531 42.695312 165.550781 44.039062 166.929688 C 45.683594 168.632812 46.355469 170.417969 46.3125 172.839844 C 46.296875 173.109375 46.28125 173.378906 46.265625 173.65625 C 46.21875 175.246094 46.710938 176.105469 47.628906 177.375 C 48.03125 177.933594 48.328125 178.453125 48.613281 179.078125 C 48.941406 179.773438 49.210938 180.148438 49.742188 180.75 C 50.917969 182.234375 50.898438 183.648438 50.707031 185.449219 C 50.585938 186 50.585938 186 50.085938 186.75 C 49.917969 186.75 49.753906 186.75 49.582031 186.75 C 49.539062 186.902344 49.492188 187.050781 49.445312 187.207031 C 49.109375 188.273438 48.820312 189.140625 48.082031 190 C 47.96875 190.191406 47.859375 190.386719 47.746094 190.582031 C 46.164062 193.121094 43.226562 195.183594 40.308594 195.871094 C 39.933594 195.949219 39.558594 196.023438 39.179688 196.097656 C 38.480469 196.269531 37.828125 196.519531 37.15625 196.78125 C 36.074219 197.183594 35.222656 197.433594 34.058594 197.25 C 33.546875 196.929688 33.046875 196.59375 32.554688 196.25 C 32.21875 196.148438 31.878906 196.054688 31.539062 195.96875 C 27.421875 194.675781 23.914062 190.25 21.804688 186.695312 C 21.351562 185.941406 20.871094 185.207031 20.394531 184.46875 C 20.300781 184.324219 20.207031 184.179688 20.113281 184.03125 C 19.492188 183.0625 18.847656 182.109375 18.203125 181.15625 C 17.460938 180.050781 16.835938 178.953125 16.277344 177.75 C 15.699219 176.550781 15.125 175.375 14.382812 174.265625 C 13.75 173.285156 13.378906 172.257812 13 171.15625 C 12.558594 169.726562 12.558594 169.726562 11.769531 168.5 C 11.695312 168.082031 11.644531 167.65625 11.597656 167.234375 C 11.558594 166.890625 11.558594 166.890625 11.515625 166.539062 C 11.523438 164.769531 12.164062 163.292969 12.960938 161.75 C 13.046875 161.574219 13.136719 161.402344 13.226562 161.222656 C 13.878906 159.964844 14.605469 158.832031 15.527344 157.75 C 15.675781 157.546875 15.828125 157.339844 15.984375 157.132812 C 16.574219 156.445312 17.148438 156.046875 17.921875 155.578125 C 18.277344 155.359375 18.277344 155.359375 18.640625 155.136719 C 18.851562 155.007812 19.066406 154.882812 19.28125 154.75 C 19.53125 154.585938 19.777344 154.421875 20.035156 154.25 C 20.394531 154.113281 20.761719 153.992188 21.128906 153.875 C 21.753906 153.679688 22.324219 153.484375 22.914062 153.203125 C 23.875 152.890625 24.796875 152.84375 25.792969 153 Z M 25.792969 153 "/>
<path style=" stroke:none;fill-rule:nonzero;fill:rgb(92.941176%,18.431373%,22.352941%);fill-opacity:1;" d="M 48.332031 195.75 C 49.492188 196.492188 50.082031 197.371094 50.835938 198.5 C 51.1875 198.8125 51.539062 199.121094 51.910156 199.410156 C 52.414062 199.8125 52.902344 200.230469 53.386719 200.65625 C 53.550781 200.796875 53.714844 200.941406 53.882812 201.085938 C 54.035156 201.222656 54.1875 201.359375 54.339844 201.5 C 54.484375 201.625 54.628906 201.75 54.773438 201.878906 C 55.273438 202.460938 55.140625 203.015625 55.09375 203.75 C 54.125 204 53.210938 204.042969 52.214844 204.015625 C 51.582031 203.988281 51.582031 203.988281 50.933594 204.046875 C 49.511719 204.078125 48.710938 203.769531 47.65625 202.785156 C 47.015625 202.132812 46.414062 201.453125 45.828125 200.75 C 45.628906 200.519531 45.433594 200.285156 45.230469 200.046875 C 44.058594 198.539062 44.058594 198.539062 44.121094 197.40625 C 45.183594 195.871094 46.53125 195.378906 48.332031 195.75 Z M 48.332031 195.75 "/>
<path style=" stroke:none;fill-rule:nonzero;fill:rgb(92.941176%,18.431373%,22.352941%);fill-opacity:1;" d="M 188.710938 168.578125 C 189.617188 169.207031 189.828125 169.945312 190.070312 171 C 190.226562 172.621094 189.890625 173.980469 189.320312 175.5 C 189.070312 175.75 189.070312 175.75 188.507812 175.859375 C 187.660156 175.726562 187.28125 175.386719 186.765625 174.710938 C 186.449219 173.980469 186.679688 173.480469 186.929688 172.753906 C 187.140625 171.980469 186.949219 171.28125 186.816406 170.5 C 186.871094 169.6875 186.957031 169.371094 187.503906 168.765625 C 188.066406 168.5 188.066406 168.5 188.710938 168.578125 Z M 188.710938 168.578125 "/>
<path style=" stroke:none;fill-rule:nonzero;fill:rgb(92.941176%,18.431373%,22.352941%);fill-opacity:1;" d="M 163.023438 295.75 C 164.246094 296.1875 164.246094 296.1875 164.527344 296.75 C 164.679688 298.191406 164.554688 299.238281 163.777344 300.5 C 162.433594 300.589844 162.433594 300.589844 161.804688 300.234375 C 161.34375 299.441406 161.402344 298.902344 161.523438 298 C 161.921875 297.195312 162.386719 296.390625 163.023438 295.75 Z M 163.023438 295.75 "/>
<path style=" stroke:none;fill-rule:nonzero;fill:rgb(92.941176%,18.431373%,22.352941%);fill-opacity:1;" d="M 119.484375 291.75 C 120.023438 292.039062 120.34375 292.25 120.703125 292.75 C 120.875 293.34375 120.875 293.34375 120.703125 294 C 119.289062 295.171875 118.023438 295.535156 116.195312 295.5 C 116.113281 295.253906 116.03125 295.003906 115.945312 294.75 C 116.371094 294.324219 116.800781 293.898438 117.230469 293.472656 C 117.511719 293.1875 117.789062 292.898438 118.058594 292.597656 C 118.824219 291.75 118.824219 291.75 119.484375 291.75 Z M 119.484375 291.75 "/>
<path style=" stroke:none;fill-rule:nonzero;fill:rgb(92.941176%,18.431373%,22.352941%);fill-opacity:1;" d="M 184.8125 172.75 C 185.289062 173.226562 185.105469 174.039062 185.109375 174.671875 C 185.113281 174.976562 185.117188 175.28125 185.121094 175.597656 C 185.0625 176.484375 184.882812 177.171875 184.5625 178 C 183.96875 177.921875 183.96875 177.921875 183.308594 177.75 C 182.734375 176.890625 182.742188 176.542969 182.746094 175.53125 C 182.746094 175.273438 182.742188 175.015625 182.742188 174.75 C 182.808594 173.984375 182.960938 173.4375 183.308594 172.75 C 183.9375 172.4375 184.160156 172.539062 184.8125 172.75 Z M 184.8125 172.75 "/>
<path style=" stroke:none;fill-rule:nonzero;fill:rgb(92.941176%,18.431373%,22.352941%);fill-opacity:1;" d="M 253.757812 108.8125 C 253.964844 108.90625 253.964844 108.90625 254.179688 109 C 254.125 110.394531 253.804688 111.039062 252.84375 111.984375 C 252.425781 112.25 252.425781 112.25 251.425781 112.25 C 251.117188 111.523438 251.171875 111.253906 251.457031 110.5 C 252.023438 109.59375 252.59375 108.6875 253.757812 108.8125 Z M 253.757812 108.8125 "/>
<path style=" stroke:none;fill-rule:nonzero;fill:rgb(92.941176%,18.431373%,22.352941%);fill-opacity:1;" d="M 251.425781 119.5 C 253.101562 119.984375 253.101562 119.984375 253.679688 120.75 C 253.679688 120.914062 253.679688 121.078125 253.679688 121.25 C 252.988281 121.3125 252.988281 121.3125 252.175781 121.25 C 251.582031 120.75 251.582031 120.75 251.175781 120.25 C 251.257812 120.003906 251.339844 119.753906 251.425781 119.5 Z M 251.425781 119.5 "/>
<path style=" stroke:none;fill-rule:nonzero;fill:rgb(92.941176%,18.431373%,22.352941%);fill-opacity:1;" d="M 132.222656 296.5 C 133.28125 296.449219 134.019531 296.550781 134.976562 297 C 134.976562 297.164062 134.976562 297.328125 134.976562 297.5 C 134.152344 297.5 133.324219 297.5 132.472656 297.5 C 132.390625 297.171875 132.308594 296.839844 132.222656 296.5 Z M 132.222656 296.5 "/>
<path style=" stroke:none;fill-rule:nonzero;fill:rgb(92.941176%,18.431373%,22.352941%);fill-opacity:1;" d="M 122.957031 293 C 123.488281 293.234375 123.488281 293.234375 123.960938 293.5 C 123.960938 293.746094 123.960938 293.996094 123.960938 294.25 C 123.546875 294.25 123.132812 294.25 122.707031 294.25 C 122.625 293.921875 122.542969 293.589844 122.457031 293.25 C 122.621094 293.167969 122.789062 293.085938 122.957031 293 Z M 122.957031 293 "/>
<path style=" stroke:none;fill-rule:nonzero;fill:rgb(92.941176%,18.431373%,22.352941%);fill-opacity:1;" d="M 105.929688 167 C 106.011719 167 106.09375 167 106.179688 167 C 106.179688 168.15625 106.179688 169.308594 106.179688 170.5 C 106.097656 170.5 106.015625 170.5 105.929688 170.5 C 105.929688 169.34375 105.929688 168.191406 105.929688 167 Z M 105.929688 167 "/>
<path style=" stroke:none;fill-rule:nonzero;fill:rgb(92.941176%,18.431373%,22.352941%);fill-opacity:1;" d="M 66.113281 231 C 66.195312 231 66.277344 231 66.363281 231 C 66.363281 231.742188 66.363281 232.484375 66.363281 233.25 C 66.28125 233.25 66.195312 233.25 66.113281 233.25 C 66.113281 232.507812 66.113281 231.765625 66.113281 231 Z M 66.113281 231 "/>
<path style=" stroke:none;fill-rule:nonzero;fill:rgb(92.941176%,18.431373%,22.352941%);fill-opacity:1;" d="M 183.558594 84.5 C 183.644531 84.5 183.726562 84.5 183.808594 84.5 C 183.808594 85.078125 183.808594 85.65625 183.808594 86.25 C 183.726562 86.25 183.644531 86.25 183.558594 86.25 C 183.558594 85.671875 183.558594 85.09375 183.558594 84.5 Z M 183.558594 84.5 "/>
<path style=" stroke:none;fill-rule:nonzero;fill:rgb(92.941176%,18.431373%,22.352941%);fill-opacity:1;" d="M 137.734375 31 C 137.816406 31 137.898438 31 137.984375 31 C 137.984375 31.578125 137.984375 32.15625 137.984375 32.75 C 137.902344 32.75 137.816406 32.75 137.734375 32.75 C 137.734375 32.171875 137.734375 31.59375 137.734375 31 Z M 137.734375 31 "/>
<path style=" stroke:none;fill-rule:nonzero;fill:rgb(92.941176%,18.431373%,22.352941%);fill-opacity:1;" d="M 184.8125 191.75 C 185.308594 191.75 185.804688 191.75 186.316406 191.75 C 186.316406 191.832031 186.316406 191.914062 186.316406 192 C 185.820312 192 185.324219 192 184.8125 192 C 184.8125 191.917969 184.8125 191.835938 184.8125 191.75 Z M 184.8125 191.75 "/>
<path style=" stroke:none;fill-rule:nonzero;fill:rgb(92.941176%,18.431373%,22.352941%);fill-opacity:1;" d="M 211.105469 163.25 C 211.601562 163.25 212.097656 163.25 212.609375 163.25 C 212.609375 163.332031 212.609375 163.414062 212.609375 163.5 C 212.113281 163.5 211.617188 163.5 211.105469 163.5 C 211.105469 163.417969 211.105469 163.335938 211.105469 163.25 Z M 211.105469 163.25 "/>
<path style=" stroke:none;fill-rule:nonzero;fill:rgb(92.941176%,18.431373%,22.352941%);fill-opacity:1;" d="M 141.238281 103.75 C 141.320312 103.75 141.402344 103.75 141.488281 103.75 C 141.488281 104.246094 141.488281 104.738281 141.488281 105.25 C 141.40625 105.25 141.324219 105.25 141.238281 105.25 C 141.238281 104.753906 141.238281 104.261719 141.238281 103.75 Z M 141.238281 103.75 "/>
<path style=" stroke:none;fill-rule:nonzero;fill:rgb(92.941176%,18.431373%,22.352941%);fill-opacity:1;" d="M 182.558594 175 C 182.640625 175 182.722656 175 182.808594 175 C 182.808594 175.414062 182.808594 175.824219 182.808594 176.25 C 182.726562 176.25 182.644531 176.25 182.558594 176.25 C 182.558594 175.835938 182.558594 175.425781 182.558594 175 Z M 182.558594 175 "/>
<path style=" stroke:none;fill-rule:nonzero;fill:rgb(92.941176%,18.431373%,22.352941%);fill-opacity:1;" d="M 231.390625 166.5 C 231.472656 166.5 231.554688 166.5 231.640625 166.5 C 231.640625 166.914062 231.640625 167.324219 231.640625 167.75 C 231.558594 167.75 231.476562 167.75 231.390625 167.75 C 231.390625 167.335938 231.390625 166.925781 231.390625 166.5 Z M 231.390625 166.5 "/>
<path style=" stroke:none;fill-rule:nonzero;fill:rgb(92.941176%,18.431373%,22.352941%);fill-opacity:1;" d="M 264.949219 90 C 265.949219 90.25 265.949219 90.25 265.949219 90.25 Z M 264.949219 90 "/>
<path style=" stroke:none;fill-rule:nonzero;fill:rgb(92.941176%,18.431373%,22.352941%);fill-opacity:1;" d="M 84.140625 47 C 84.308594 47 84.472656 47 84.644531 47 C 84.644531 47.164062 84.644531 47.328125 84.644531 47.5 C 84.476562 47.5 84.3125 47.5 84.140625 47.5 C 84.140625 47.335938 84.140625 47.171875 84.140625 47 Z M 84.140625 47 "/>
<path style=" stroke:none;fill-rule:nonzero;fill:rgb(92.941176%,18.431373%,22.352941%);fill-opacity:1;" d="M 47.078125 195.5 C 47.582031 195.75 47.582031 195.75 47.582031 195.75 Z M 47.078125 195.5 "/>
<path style=" stroke:none;fill-rule:nonzero;fill:rgb(92.941176%,18.431373%,22.352941%);fill-opacity:1;" d="M 132.472656 136 C 132.976562 136.25 132.976562 136.25 132.976562 136.25 Z M 132.472656 136 "/>
</g>
</svg>
